<?xml version="1.0" encoding="UTF-8"?>
<svg version="1.1" xmlns="http://www.w3.org/2000/svg" width="544" height="617">
<path d="M0 0 C162.03 0 324.06 0 491 0 C490.67 8.91 490.34 17.82 490 27 C498.58 27 507.16 27 516 27 C516 212.79 516 398.58 516 590 C507.42 590 498.84 590 490 590 C490 598.58 490 607.16 490 616 C486.29280227 617.23573258 482.86973829 617.13613192 479.00957966 617.12304783 C478.18219177 617.12420167 477.35480388 617.12535552 476.50234362 617.12654433 C473.70583235 617.12920944 470.90937766 617.12468967 468.11286926 617.12025452 C466.09737738 617.12069024 464.08188555 617.12156517 462.06639403 617.12284368 C456.50919688 617.12508842 450.95201886 617.12106762 445.39482415 617.11606562 C439.40913589 617.11176102 433.42344877 617.11320755 427.4377594 617.1139679 C417.06090378 617.11449312 406.68405332 617.11138122 396.30719948 617.10573006 C385.421649 617.09981703 374.53610101 617.09596492 363.65054893 617.09487724 C362.63605242 617.09477413 362.63605242 617.09477413 361.60106103 617.09466894 C358.16644599 617.09433062 354.73183095 617.09402923 351.2972159 617.09374207 C326.95733819 617.09164055 302.61746376 617.08490011 278.27758789 617.07543945 C254.62882505 617.06625802 230.9800631 617.05917294 207.33129883 617.05493164 C206.60259412 617.05480011 205.87388942 617.05466859 205.12310275 617.05453308 C197.80528245 617.05321458 190.48746215 617.05193876 183.16964184 617.05069422 C168.2618321 617.04815787 153.35402242 617.04533662 138.44621277 617.04234314 C137.41801268 617.0421372 137.41801268 617.0421372 136.36904088 617.04192711 C90.57935919 617.03272338 44.78967946 617.01680108 -1 617 C-1 608.09 -1 599.18 -1 590 C-9.58 590 -18.16 590 -27 590 C-27.9653257 577.09415167 -28.1389288 564.28575639 -28.12025452 551.34765625 C-28.12069128 549.08170624 -28.12156812 546.81575629 -28.12284368 544.54980659 C-28.12506796 538.36069039 -28.12109581 532.17159165 -28.11606562 525.98247766 C-28.11217735 519.98225474 -28.11302749 513.98203361 -28.11374746 507.98180993 C-28.11505711 495.71831936 -28.11173618 483.45483421 -28.10573006 471.19134521 C-28.09980286 459.05775933 -28.09596206 446.9241757 -28.09487724 434.79058838 C-28.0948085 434.03474287 -28.09473976 433.27889736 -28.09466894 432.50014745 C-28.09433058 428.66122626 -28.09402921 424.82230508 -28.09374207 420.98338389 C-28.09164446 393.82778825 -28.08491494 366.67219555 -28.07543945 339.51660156 C-28.06624768 313.14355485 -28.05916767 286.77050894 -28.05493164 260.39746094 C-28.05480011 259.58381083 -28.05466859 258.77016072 -28.05453308 257.93185455 C-28.0532145 249.76047211 -28.05193869 241.58908967 -28.05069422 233.41770722 C-28.04815835 216.7732631 -28.04533709 200.12881904 -28.04234314 183.484375 C-28.04220585 182.71917469 -28.04206856 181.95397437 -28.04192711 181.16558617 C-28.03273424 130.11038952 -28.01681284 79.05519464 -28 28 C-18.76 28 -9.52 28 0 28 C0 18.76 0 9.52 0 0 Z M74 83 C74 90.92 74 98.84 74 107 C65.75 107 57.5 107 49 107 C49 128.78 49 150.56 49 173 C57.25 173 65.5 173 74 173 C74 181.25 74 189.5 74 198 C93.8 198 113.6 198 134 198 C134 189.75 134 181.5 134 173 C141.92 173 149.84 173 158 173 C158 151.22 158 129.44 158 107 C149.75 107 141.5 107 133 107 C133 99.08 133 91.16 133 83 C113.53 83 94.06 83 74 83 Z M215 83 C215 90.92 215 98.84 215 107 C206.75 107 198.5 107 190 107 C190 128.45 190 149.9 190 172 C198.25 172 206.5 172 215 172 C215 180.58 215 189.16 215 198 C234.47 198 253.94 198 274 198 C274 189.42 274 180.84 274 172 C282.25 172 290.5 172 299 172 C299 150.55 299 129.1 299 107 C290.75 107 282.5 107 274 107 C274 99.08 274 91.16 274 83 C254.53 83 235.06 83 215 83 Z M356 83 C356 90.92 356 98.84 356 107 C347.75 107 339.5 107 331 107 C331 128.78 331 150.56 331 173 C339.25 173 347.5 173 356 173 C356 181.25 356 189.5 356 198 C375.8 198 395.6 198 416 198 C416 189.75 416 181.5 416 173 C423.92 173 431.84 173 440 173 C440 151.22 440 129.44 440 107 C431.42 107 422.84 107 414 107 C414 99.08 414 91.16 414 83 C394.86 83 375.72 83 356 83 Z M73 234 C73 242.25 73 250.5 73 259 C65.08 259 57.16 259 49 259 C49 280.78 49 302.56 49 325 C56.92 325 64.84 325 73 325 C73 333.25 73 341.5 73 350 C93.13 350 113.26 350 134 350 C134 341.75 134 333.5 134 325 C142.25 325 150.5 325 159 325 C159 303.22 159 281.44 159 259 C150.75 259 142.5 259 134 259 C134 250.75 134 242.5 134 234 C113.87 234 93.74 234 73 234 Z M215 235 C215 242.92 215 250.84 215 259 C206.75 259 198.5 259 190 259 C190 280.78 190 302.56 190 325 C198.25 325 206.5 325 215 325 C215 333.25 215 341.5 215 350 C234.47 350 253.94 350 274 350 C274 341.75 274 333.5 274 325 C282.25 325 290.5 325 299 325 C299 303.55 299 282.1 299 260 C290.75 260 282.5 260 274 260 C274 251.75 274 243.5 274 235 C254.53 235 235.06 235 215 235 Z M356 235 C356 242.92 356 250.84 356 259 C347.75 259 339.5 259 331 259 C331 280.78 331 302.56 331 325 C339.25 325 347.5 325 356 325 C356 333.25 356 341.5 356 350 C375.8 350 395.6 350 416 350 C416 341.75 416 333.5 416 325 C427.4375 325.5625 427.4375 325.5625 431.04858398 325.74829102 C431.98001221 325.79139404 432.91144043 325.83449707 433.87109375 325.87890625 C434.82943115 325.9260376 435.78776855 325.97316895 436.77514648 326.02172852 C438.97347702 326.25991218 438.97347702 326.25991218 440 325 C440.09413687 322.94443339 440.11742998 320.88559819 440.11352539 318.82788086 C440.11367142 318.18399918 440.11381744 317.54011749 440.1139679 316.87672424 C440.11326885 314.73939697 440.10547691 312.60215587 440.09765625 310.46484375 C440.09579204 308.98653715 440.09436815 307.50822993 440.09336853 306.02992249 C440.08954359 302.13201198 440.07971352 298.23413851 440.06866455 294.33624268 C440.05844992 290.36153667 440.0538708 286.38682471 440.04882812 282.41210938 C440.03809122 274.60805404 440.02049462 266.80403692 440 259 C432.08 258.67 424.16 258.34 416 258 C416.0625 247.0625 416.0625 247.0625 416.09008789 243.60961914 C416.09258545 242.71879639 416.09508301 241.82797363 416.09765625 240.91015625 C416.10551147 239.53549194 416.10551147 239.53549194 416.11352539 238.13305664 C416.23921211 236.01636977 416.23921211 236.01636977 415 235 C413.15881971 234.90618698 411.31402359 234.88256046 409.47045898 234.88647461 C408.28931015 234.88655014 407.10816132 234.88662567 405.89122009 234.88670349 C403.96313255 234.89444542 403.96313255 234.89444542 401.99609375 234.90234375 C400.68794205 234.9037587 399.37979034 234.90517365 398.03199768 234.90663147 C394.54837141 234.9104559 391.06478661 234.92028554 387.58117676 234.93133545 C384.02873292 234.94155118 380.47628241 234.94612944 376.92382812 234.95117188 C369.94919996 234.96190788 362.97460624 234.97950407 356 235 Z M73 386 C73 393.92 73 401.84 73 410 C65.08 410 57.16 410 49 410 C49 432.11 49 454.22 49 477 C56.92 477 64.84 477 73 477 C73 485.58 73 494.16 73 503 C93.46 503 113.92 503 135 503 C135 494.42 135 485.84 135 477 C142.59 477 150.18 477 158 477 C158 454.89 158 432.78 158 410 C150.41 410 142.82 410 135 410 C135 402.08 135 394.16 135 386 C114.54 386 94.08 386 73 386 Z M215 387 C215 394.59 215 402.18 215 410 C206.75 410 198.5 410 190 410 C190 431.78 190 453.56 190 476 C198.25 476 206.5 476 215 476 C215 484.58 215 493.16 215 502 C234.47 502 253.94 502 274 502 C274 493.42 274 484.84 274 476 C282.25 476 290.5 476 299 476 C299 454.22 299 432.44 299 410 C290.75 410 282.5 410 274 410 C274 402.41 274 394.82 274 387 C254.53 387 235.06 387 215 387 Z M356 387 C356 394.92 356 402.84 356 411 C347.75 411 339.5 411 331 411 C331 432.78 331 454.56 331 477 C339.25 477 347.5 477 356 477 C356 485.25 356 493.5 356 502 C375.47 502 394.94 502 415 502 C415 493.75 415 485.5 415 477 C423.25 477 431.5 477 440 477 C440 455.22 440 433.44 440 411 C431.75 411 423.5 411 415 411 C415 403.08 415 395.16 415 387 C395.53 387 376.06 387 356 387 Z " fill="#FE6E60" transform="translate(28,0)"/>
</svg>
