<?xml version="1.0" encoding="UTF-8"?>
<svg id="a" data-name="Layer 2" xmlns="http://www.w3.org/2000/svg" viewBox="0 0 2548.5 519.5">
  <defs>
    <style>
      .c {
        fill: #ff6f61;
      }

      .d {
        fill: #006d77;
      }

      .e {
        stroke: #ff6f61;
        stroke-width: 10px;
      }

      .e, .f {
        fill: none;
        stroke-miterlimit: 10;
      }

      .f {
        stroke: #006d77;
        stroke-width: 6px;
      }

      .g {
        fill: #fe6f61;
      }

      .h {
        fill: #2d3436;
      }
    </style>
  </defs>
  <g id="b" data-name="Layer 2">
    <g>
      <polygon class="d" points="319.12 0 319.22 11.14 359.87 11.13 360 25.97 389.56 25.98 389.68 40.77 404.42 40.87 404.52 55.61 419.28 55.71 419.2 70.51 330.25 70.49 330.24 114.96 345.09 115.09 345.1 144.66 359.95 144.79 359.93 189.18 374.71 189.3 374.87 200.37 404.41 200.38 404.53 215.22 434.09 215.23 434.23 230.07 478.61 230.06 478.75 244.91 508.37 244.91 508.37 259.75 0 259.75 0 244.91 29.62 244.91 29.75 230.06 70.44 230.07 70.56 215.23 100.13 215.22 100.25 200.38 129.79 200.37 129.95 189.3 144.71 189.19 144.72 159.62 159.55 159.5 159.57 129.94 174.4 129.81 174.41 100.25 189.24 100.13 189.25 70.56 204.08 70.44 204.09 40.91 215.17 40.74 215.27 26.03 230.01 25.92 230.12 11.18 244.84 11.09 244.91 0 319.12 0"/>
      <path class="g" d="M449,85.42h-14.85s-.03,44.4-.03,44.4c-5.29.29-9.51.26-14.76.01l-.07-29.6-14.77-.02-.2,14.8h-14.56s-.1-14.79-.1-14.79l14.76-.1.1-14.74,29.61-.02.03-29.66,14.78-.11.1-14.74,14.74-.1.1-14.76h14.77s-.11,14.78-.11,14.78l-14.66.1-.2,14.74-14.67.1.15,14.86,44.29-.03-.09,14.85h-29.49s-.01,14.76-.01,14.76l14.78.09-.11,14.77h-14.56s-.2-14.76-.2-14.76l-14.63-.1-.16-14.74Z"/>
      <rect class="g" x="419.31" y="11.13" width="14.84" height="29.77"/>
      <polygon class="d" points="319.12 519.5 304.28 519.5 304.29 475.05 289.48 475 289.39 489.77 274.64 489.87 274.54 504.61 259.79 504.71 259.75 519.5 215.22 519.5 215.26 504.71 230.08 504.6 230.08 475.03 215.27 475 215.17 489.77 200.43 489.87 200.3 504.67 144.8 504.67 144.74 489.89 155.78 489.74 155.92 478.73 170.66 478.64 170.6 463.83 100.28 463.85 100.14 449.05 85.38 448.95 85.4 434.16 114.98 434.15 115 419.36 100.24 419.26 100.13 404.48 70.57 404.46 70.45 389.68 55.71 389.57 55.61 374.83 40.85 374.74 40.89 359.93 85.28 359.95 85.31 345.14 70.55 345.05 70.45 330.31 55.71 330.2 55.61 315.46 40.8 315.35 40.8 274.66 55.61 274.62 55.72 289.45 85.28 289.45 85.47 274.59 229.92 274.59 230.04 289.39 215.2 289.5 215.21 330.19 230.01 330.31 230.14 345.11 274.52 345.11 274.64 330.31 289.45 330.18 289.45 289.5 274.62 289.39 274.75 274.59 434.02 274.59 434.21 289.38 448.94 289.49 449.05 304.23 463.85 304.34 463.86 345.03 449.05 345.07 448.94 330.24 419.37 330.24 419.34 345.05 434.15 345.16 434.16 374.72 449.01 374.85 449.01 419.24 434.2 419.28 434.1 404.52 419.36 404.42 419.26 389.66 404.46 389.72 404.48 460.04 389.68 460.18 389.58 474.94 374.79 474.93 374.77 449.05 360.01 449.02 359.87 460.08 345.1 460.19 345.09 489.75 330.3 489.87 330.21 504.58 319.16 504.73 319.12 519.5"/>
    </g>
    <g>
      <g>
        <circle class="c" cx="1985.65" cy="26.31" r="21.26"/>
        <path class="d" d="M571.48,214.81l-19.76-150.37h28.14l14.61,130.6h3.87l18.9-130.6h48.98l18.9,130.6h3.87l14.61-130.6h28.14l-19.76,150.37h-48.98l-19.33-133.61h-3.87l-19.33,133.61h-48.98Z"/>
        <path class="d" d="M809.49,217.82c-18.9,0-33.94-5.19-45.11-15.57-11.17-10.38-16.76-25.24-16.76-44.57v-36.09c0-19.33,5.59-34.19,16.76-44.57,11.17-10.38,26.21-15.57,45.11-15.57s33.94,5.19,45.11,15.57c11.17,10.38,16.76,25.24,16.76,44.57v36.09c0,19.33-5.58,34.19-16.76,44.57-11.17,10.38-26.21,15.57-45.11,15.57ZM809.49,192.47c10.6,0,18.83-3.08,24.7-9.24,5.87-6.16,8.81-14.39,8.81-24.7v-37.81c0-10.31-2.94-18.54-8.81-24.7-5.87-6.16-14.11-9.24-24.7-9.24s-18.65,3.08-24.6,9.24c-5.94,6.16-8.91,14.39-8.91,24.7v37.81c0,10.31,2.97,18.55,8.91,24.7,5.94,6.16,14.14,9.24,24.6,9.24Z"/>
        <path class="d" d="M954.7,217.82c-18.9,0-33.94-5.19-45.11-15.57-11.17-10.38-16.76-25.24-16.76-44.57v-36.09c0-19.33,5.59-34.19,16.76-44.57,11.17-10.38,26.21-15.57,45.11-15.57s33.94,5.19,45.11,15.57c11.17,10.38,16.76,25.24,16.76,44.57v36.09c0,19.33-5.58,34.19-16.76,44.57-11.17,10.38-26.21,15.57-45.11,15.57ZM954.7,192.47c10.6,0,18.83-3.08,24.7-9.24,5.87-6.16,8.81-14.39,8.81-24.7v-37.81c0-10.31-2.94-18.54-8.81-24.7-5.87-6.16-14.11-9.24-24.7-9.24s-18.65,3.08-24.6,9.24c-5.94,6.16-8.91,14.39-8.91,24.7v37.81c0,10.31,2.97,18.55,8.91,24.7,5.94,6.16,14.14,9.24,24.6,9.24Z"/>
        <path class="d" d="M1032.46,214.81v-24.92h19.76v-100.53h-19.76v-24.92h61.86c20.19,0,35.55,5.12,46.08,15.36,10.53,10.24,15.79,25.46,15.79,45.65v28.35c0,20.19-5.26,35.41-15.79,45.65-10.53,10.24-25.88,15.36-46.08,15.36h-61.86ZM1080.58,189.03h14.18c11.46,0,19.83-3.01,25.13-9.02,5.3-6.01,7.95-14.46,7.95-25.35v-30.07c0-11.03-2.65-19.51-7.95-25.45-5.3-5.94-13.68-8.91-25.13-8.91h-14.18v98.81Z"/>
        <path class="d" d="M1232.01,217.82c-11.6,0-21.84-2.08-30.72-6.23-8.88-4.15-15.83-10.1-20.84-17.83-5.01-7.73-7.52-17.04-7.52-27.93v-6.01h27.92v6.01c0,9.02,2.79,15.79,8.38,20.3,5.58,4.51,13.17,6.77,22.77,6.77s17-1.93,21.8-5.8c4.8-3.87,7.2-8.81,7.2-14.82,0-4.15-1.18-7.52-3.54-10.1s-5.8-4.69-10.31-6.34c-4.51-1.64-9.99-3.19-16.43-4.62l-4.94-1.07c-10.31-2.29-19.15-5.19-26.53-8.7-7.38-3.51-13.03-8.13-16.97-13.86-3.94-5.73-5.91-13.17-5.91-22.34s2.18-17,6.55-23.52c4.37-6.51,10.53-11.53,18.47-15.04,7.95-3.51,17.29-5.26,28.03-5.26s20.3,1.83,28.68,5.48c8.38,3.65,14.96,9.1,19.76,16.33,4.8,7.23,7.2,16.29,7.2,27.17v6.44h-27.93v-6.44c0-5.73-1.11-10.34-3.33-13.85-2.22-3.51-5.41-6.09-9.56-7.73-4.16-1.64-9.1-2.47-14.82-2.47-8.59,0-14.93,1.61-19.01,4.83-4.08,3.22-6.12,7.63-6.12,13.21,0,3.73.97,6.87,2.9,9.45s4.83,4.73,8.7,6.44c3.87,1.72,8.81,3.22,14.82,4.51l4.94,1.07c10.74,2.29,20.08,5.23,28.03,8.81,7.95,3.58,14.14,8.31,18.58,14.18,4.44,5.87,6.66,13.39,6.66,22.56s-2.33,17.22-6.98,24.17c-4.66,6.95-11.24,12.39-19.76,16.33-8.52,3.94-18.58,5.91-30.18,5.91Z"/>
        <path class="d" d="M1309.99,214.81V64.44h28.35v62.08h55.85v-62.08h28.36v150.37h-28.36v-62.51h-55.85v62.51h-28.35Z"/>
        <path class="d" d="M1509.33,217.82c-18.9,0-33.94-5.19-45.11-15.57-11.17-10.38-16.75-25.24-16.75-44.57v-36.09c0-19.33,5.58-34.19,16.75-44.57,11.17-10.38,26.21-15.57,45.11-15.57s33.94,5.19,45.11,15.57c11.17,10.38,16.75,25.24,16.75,44.57v36.09c0,19.33-5.58,34.19-16.75,44.57-11.17,10.38-26.21,15.57-45.11,15.57ZM1509.33,192.47c10.6,0,18.83-3.08,24.7-9.24,5.87-6.16,8.81-14.39,8.81-24.7v-37.81c0-10.31-2.94-18.54-8.81-24.7-5.87-6.16-14.11-9.24-24.7-9.24s-18.66,3.08-24.6,9.24c-5.94,6.16-8.92,14.39-8.92,24.7v37.81c0,10.31,2.97,18.55,8.92,24.7,5.94,6.16,14.14,9.24,24.6,9.24Z"/>
        <path class="d" d="M1596.11,214.81V64.44h61.86c9.45,0,17.79,1.9,25.03,5.69,7.23,3.8,12.89,9.13,16.97,16,4.08,6.87,6.12,15.04,6.12,24.49v3.01c0,9.31-2.11,17.44-6.34,24.38-4.23,6.95-9.96,12.32-17.18,16.11-7.23,3.8-15.43,5.69-24.6,5.69h-33.51v54.99h-28.35ZM1624.46,134.04h30.72c6.73,0,12.17-1.86,16.33-5.58,4.15-3.72,6.23-8.81,6.23-15.25v-2.15c0-6.44-2.08-11.53-6.23-15.25-4.16-3.72-9.6-5.58-16.33-5.58h-30.72v43.82Z"/>
        <path class="f" d="M1791.15,214.81l-19.76-150.37h28.14l14.61,130.6h3.87l18.9-130.6h48.98l18.9,130.6h3.87l14.61-130.6h28.14l-19.76,150.37h-48.98l-19.33-133.61h-3.87l-19.33,133.61h-48.98Z"/>
        <path class="f" d="M1972.02,214.81V64.44h28.35v150.37h-28.35Z"/>
        <path class="f" d="M2024.43,214.81v-36.09l74.32-85.49v-3.44h-72.18v-25.35h101.82v36.09l-74.32,85.49v3.44h74.75v25.35h-104.4Z"/>
        <path class="f" d="M2142.14,214.81l39.53-150.37h49.41l39.53,150.37h-29.21l-8.16-33.08h-53.7l-8.16,33.08h-29.21ZM2186.18,155.52h40.38l-18.26-73.25h-3.87l-18.26,73.25Z"/>
        <path class="f" d="M2288.64,214.81V64.44h65.3c9.45,0,17.68,1.65,24.7,4.94,7.02,3.3,12.46,7.95,16.33,13.96,3.87,6.01,5.8,13.1,5.8,21.27v2.58c0,9.02-2.15,16.33-6.44,21.91s-9.6,9.67-15.9,12.24v3.87c5.73.29,10.17,2.26,13.32,5.91,3.15,3.65,4.73,8.49,4.73,14.5v49.19h-28.35v-45.11c0-3.44-.9-6.23-2.68-8.38-1.79-2.15-4.76-3.22-8.92-3.22h-39.52v56.71h-28.35ZM2317,132.32h33.94c6.73,0,11.99-1.83,15.79-5.48,3.79-3.65,5.69-8.49,5.69-14.5v-2.15c0-6.01-1.86-10.85-5.59-14.5-3.73-3.65-9.02-5.48-15.9-5.48h-33.94v42.1Z"/>
        <path class="f" d="M2420.1,214.81v-24.92h19.76v-100.53h-19.76v-24.92h61.87c20.19,0,35.55,5.12,46.08,15.36,10.53,10.24,15.79,25.46,15.79,45.65v28.35c0,20.19-5.26,35.41-15.79,45.65-10.53,10.24-25.88,15.36-46.08,15.36h-61.87ZM2468.22,189.03h14.18c11.46,0,19.83-3.01,25.13-9.02,5.3-6.01,7.95-14.46,7.95-25.35v-30.07c0-11.03-2.65-19.51-7.95-25.45-5.3-5.94-13.68-8.91-25.13-8.91h-14.18v98.81Z"/>
      </g>
      <line class="e" x1="551" y1="266.97" x2="2548.5" y2="266.97"/>
      <g>
        <path class="h" d="M579.06,382.45c-5.09,0-9.6-.9-13.53-2.71-3.93-1.8-7.01-4.46-9.23-7.97-2.22-3.51-3.33-7.78-3.33-12.81v-2.42h10.34v2.42c0,4.77,1.43,8.35,4.3,10.73,2.87,2.38,6.68,3.58,11.45,3.58s8.47-1.02,10.92-3.04c2.45-2.03,3.67-4.65,3.67-7.88,0-2.13-.58-3.87-1.74-5.22-1.16-1.35-2.8-2.43-4.93-3.24-2.13-.81-4.67-1.56-7.64-2.27l-3.58-.87c-4.32-1.03-8.07-2.3-11.26-3.82-3.19-1.51-5.65-3.53-7.39-6.04-1.74-2.51-2.61-5.73-2.61-9.67s.98-7.41,2.95-10.25c1.96-2.83,4.69-5.03,8.17-6.57s7.57-2.32,12.27-2.32,8.91.81,12.61,2.42c3.7,1.61,6.62,4,8.75,7.15,2.13,3.16,3.19,7.12,3.19,11.89v3.48h-10.34v-3.48c0-2.9-.6-5.25-1.79-7.06-1.19-1.8-2.85-3.12-4.98-3.96-2.13-.84-4.61-1.26-7.44-1.26-4.12,0-7.33.85-9.62,2.56-2.29,1.71-3.43,4.08-3.43,7.1,0,2.06.5,3.75,1.5,5.07,1,1.32,2.46,2.4,4.4,3.24,1.93.84,4.35,1.58,7.25,2.22l3.58.87c4.38.97,8.25,2.21,11.6,3.72,3.35,1.51,5.99,3.56,7.93,6.14,1.93,2.58,2.9,5.9,2.9,9.96s-1.01,7.6-3.04,10.63c-2.03,3.03-4.91,5.4-8.65,7.1-3.74,1.71-8.15,2.56-13.24,2.56Z"/>
        <path class="h" d="M615.21,381.1v-67.66h9.96v26.77h1.55c.64-1.22,1.56-2.42,2.75-3.58,1.19-1.16,2.77-2.11,4.74-2.85,1.96-.74,4.46-1.11,7.49-1.11,3.61,0,6.81.81,9.62,2.42,2.8,1.61,5.01,3.88,6.62,6.81,1.61,2.93,2.42,6.46,2.42,10.58v28.61h-9.96v-27.84c0-4.12-1.03-7.17-3.09-9.13-2.06-1.96-4.9-2.95-8.51-2.95-4.12,0-7.43,1.35-9.91,4.06-2.48,2.71-3.72,6.64-3.72,11.79v24.07h-9.96Z"/>
        <path class="h" d="M696.49,382.45c-4.83,0-9.05-1.01-12.66-3.04-3.61-2.03-6.43-4.9-8.46-8.6-2.03-3.7-3.04-8.01-3.04-12.9v-1.16c0-4.96,1-9.29,3-13,2-3.7,4.78-6.57,8.36-8.6,3.58-2.03,7.72-3.04,12.42-3.04s8.59,1.02,12.03,3.04c3.45,2.03,6.14,4.85,8.07,8.46,1.93,3.61,2.9,7.83,2.9,12.66v3.77h-36.63c.13,4.19,1.53,7.52,4.2,10,2.67,2.48,6.01,3.72,10,3.72,3.74,0,6.56-.84,8.46-2.51,1.9-1.67,3.37-3.61,4.4-5.8l8.22,4.25c-.9,1.8-2.21,3.71-3.91,5.7-1.71,2-3.95,3.67-6.72,5.03-2.77,1.35-6.32,2.03-10.63,2.03ZM682.57,352.39h26.39c-.26-3.61-1.55-6.43-3.87-8.46-2.32-2.03-5.35-3.04-9.09-3.04s-6.78,1.01-9.13,3.04c-2.35,2.03-3.79,4.85-4.3,8.46Z"/>
        <path class="h" d="M752.93,382.45c-4.83,0-9.05-1.01-12.66-3.04-3.61-2.03-6.43-4.9-8.46-8.6-2.03-3.7-3.04-8.01-3.04-12.9v-1.16c0-4.96,1-9.29,3-13,2-3.7,4.78-6.57,8.36-8.6,3.58-2.03,7.72-3.04,12.42-3.04s8.59,1.02,12.03,3.04c3.45,2.03,6.14,4.85,8.07,8.46,1.93,3.61,2.9,7.83,2.9,12.66v3.77h-36.63c.13,4.19,1.53,7.52,4.2,10,2.67,2.48,6.01,3.72,10,3.72,3.74,0,6.56-.84,8.46-2.51,1.9-1.67,3.37-3.61,4.4-5.8l8.22,4.25c-.9,1.8-2.21,3.71-3.91,5.7-1.71,2-3.95,3.67-6.72,5.03-2.77,1.35-6.32,2.03-10.63,2.03ZM739.01,352.39h26.39c-.26-3.61-1.55-6.43-3.87-8.46-2.32-2.03-5.35-3.04-9.09-3.04s-6.78,1.01-9.13,3.04c-2.35,2.03-3.79,4.85-4.3,8.46Z"/>
        <path class="h" d="M803.67,381.1c-2.9,0-5.2-.87-6.91-2.61-1.71-1.74-2.56-4.06-2.56-6.96v-29.67h-13.14v-8.41h13.14v-15.75h9.96v15.75h14.21v8.41h-14.21v27.93c0,1.93.9,2.9,2.71,2.9h9.96v8.41h-13.14Z"/>
        <path class="h" d="M879.54,382.45c-8.25,0-14.79-2.33-19.62-7.01-4.83-4.67-7.25-11.42-7.25-20.25v-15.85c0-8.83,2.42-15.58,7.25-20.25,4.83-4.67,11.37-7.01,19.62-7.01s14.38,2.26,18.8,6.77c4.41,4.51,6.62,10.67,6.62,18.46v.58h-10.34v-.87c0-4.57-1.24-8.31-3.72-11.21-2.48-2.9-6.27-4.35-11.36-4.35s-9.18,1.56-12.08,4.69c-2.9,3.13-4.35,7.46-4.35,13v16.24c0,5.48,1.45,9.79,4.35,12.95,2.9,3.16,6.93,4.74,12.08,4.74s8.88-1.46,11.36-4.4c2.48-2.93,3.72-6.65,3.72-11.16v-1.64h10.34v1.35c0,7.8-2.21,13.95-6.62,18.46-4.41,4.51-10.68,6.77-18.8,6.77Z"/>
        <path class="h" d="M935.12,381.97c-3.61,0-6.83-.81-9.67-2.42-2.84-1.61-5.06-3.9-6.67-6.86-1.61-2.96-2.42-6.51-2.42-10.63v-28.61h9.96v27.93c0,4.12,1.03,7.17,3.09,9.13,2.06,1.97,4.93,2.95,8.6,2.95,4.06,0,7.33-1.37,9.81-4.11,2.48-2.74,3.72-6.68,3.72-11.84v-24.07h9.96v47.65h-9.76v-7.15h-1.55c-.9,1.93-2.51,3.75-4.83,5.46-2.32,1.71-5.74,2.56-10.25,2.56Z"/>
        <path class="h" d="M994.07,381.1c-2.9,0-5.2-.87-6.91-2.61-1.71-1.74-2.56-4.06-2.56-6.96v-29.67h-13.14v-8.41h13.14v-15.75h9.96v15.75h14.21v8.41h-14.21v27.93c0,1.93.9,2.9,2.71,2.9h9.96v8.41h-13.14Z"/>
        <path class="h" d="M1050.23,381.1l-9.96-67.66h10.44l8.12,60.6h1.55l10.44-60.6h18.27l10.44,60.6h1.55l8.02-60.6h10.44l-9.96,67.66h-18.27l-10.63-61.47h-1.55l-10.53,61.47h-18.36Z"/>
        <path class="h" d="M1135.18,326.97c-1.93,0-3.56-.63-4.88-1.88-1.32-1.26-1.98-2.88-1.98-4.88s.66-3.62,1.98-4.88c1.32-1.26,2.95-1.88,4.88-1.88s3.64.63,4.93,1.88c1.29,1.26,1.93,2.88,1.93,4.88s-.65,3.62-1.93,4.88c-1.29,1.26-2.93,1.88-4.93,1.88ZM1130.15,381.1v-47.65h9.96v47.65h-9.96Z"/>
        <path class="h" d="M1152.96,381.1v-12.18l28.12-25.71v-1.35h-27.16v-8.41h37.98v12.27l-28.22,25.71v1.26h29v8.41h-39.72Z"/>
        <path class="h" d="M1219.75,382.45c-3.42,0-6.46-.58-9.13-1.74-2.67-1.16-4.8-2.87-6.38-5.12-1.58-2.25-2.37-4.99-2.37-8.22s.79-6.01,2.37-8.17c1.58-2.16,3.74-3.78,6.48-4.88,2.74-1.1,5.85-1.64,9.33-1.64h14.5v-3.09c0-2.77-.84-4.99-2.51-6.67-1.68-1.67-4.25-2.51-7.73-2.51s-6.03.81-7.83,2.42c-1.8,1.61-3,3.71-3.58,6.28l-9.28-3c.77-2.58,2.01-4.91,3.72-7.01,1.71-2.09,3.98-3.78,6.81-5.07,2.83-1.29,6.25-1.93,10.24-1.93,6.19,0,11.05,1.58,14.59,4.74,3.54,3.16,5.32,7.64,5.32,13.43v19.62c0,1.93.9,2.9,2.71,2.9h4.06v8.31h-7.44c-2.26,0-4.09-.58-5.51-1.74-1.42-1.16-2.13-2.74-2.13-4.74v-.29h-1.45c-.52.97-1.29,2.09-2.32,3.38-1.03,1.29-2.55,2.4-4.54,3.33-2,.93-4.64,1.4-7.93,1.4ZM1221.2,374.24c3.99,0,7.22-1.14,9.67-3.43,2.45-2.29,3.67-5.43,3.67-9.42v-.97h-13.92c-2.64,0-4.77.56-6.38,1.69-1.61,1.13-2.42,2.79-2.42,4.98s.84,3.93,2.51,5.22c1.67,1.29,3.96,1.93,6.86,1.93Z"/>
        <path class="h" d="M1260.73,381.1v-47.65h9.76v5.61h1.55c.77-2,2.01-3.46,3.72-4.4,1.71-.93,3.82-1.4,6.33-1.4h5.7v8.99h-6.09c-3.22,0-5.86.89-7.93,2.66-2.06,1.77-3.09,4.49-3.09,8.17v28.03h-9.96Z"/>
        <path class="h" d="M1316.11,382.45c-3.93,0-7.57-.97-10.92-2.9-3.35-1.93-6.04-4.72-8.07-8.36-2.03-3.64-3.04-8.04-3.04-13.19v-1.45c0-5.09,1-9.47,3-13.14,2-3.67,4.67-6.48,8.02-8.41,3.35-1.93,7.02-2.9,11.02-2.9,3.09,0,5.69.39,7.78,1.16,2.09.77,3.82,1.76,5.17,2.95,1.35,1.19,2.38,2.43,3.09,3.72h1.55v-26.48h9.96v67.66h-9.76v-6.77h-1.55c-1.22,2.06-3.08,3.93-5.56,5.61-2.48,1.67-6.04,2.51-10.68,2.51ZM1318.91,373.75c4.32,0,7.88-1.39,10.68-4.16,2.8-2.77,4.2-6.73,4.2-11.89v-.87c0-5.09-1.39-9.02-4.16-11.79-2.77-2.77-6.35-4.16-10.73-4.16s-7.78,1.39-10.58,4.16c-2.8,2.77-4.2,6.7-4.2,11.79v.87c0,5.16,1.4,9.12,4.2,11.89,2.8,2.77,6.33,4.16,10.58,4.16Z"/>
      </g>
    </g>
  </g>
</svg>