<?xml version="1.0" encoding="UTF-8"?>
<svg id="a" data-name="Layer 2" xmlns="http://www.w3.org/2000/svg" viewBox="0 0 147 147">
  <defs>
    <style>
      .c {
        fill: #006d77;
      }
    </style>
  </defs>
  <g id="b" data-name="Layer 1">
    <g>
      <path class="c" d="M108,0l.03,11.94,8.92.12.12,8.9,11.88.08.12,8.9,8.9.12.08,11.88,8.96.06v9l-8.96.06-.08,11.88-8.9.12-.12,8.9-11.9.08-.08,11.9-8.9.12-.11,8.89-8.95-.03v-29.94s-24.24.24-24.24.24c.21,2.41.56,3.85.15,5.24s-7.33-.21-8.01.72l-1.92,2.62c-1.32,1.8-5.18-.26-7.91.29l-.12,8.86-8.94.13v23.85c-3.2.17-5.8.19-9.02-.01v-32.84s9.01-.14,9.01-.14l.02-20.87,8.93-.13.12-8.93,17.89-.03.09-11.98,23.95-.02V0s9,0,9,0Z"/>
      <path class="c" d="M9,138H0V30l8.94-.05.14-8.96h47.81c.23,3.21.23,5.8,0,9.02H8.99s.01,107.99.01,107.99Z"/>
      <path class="c" d="M120,147H9v-9h110.99s.01-41.9.01-41.9c3.21-.22,5.81-.21,9.02,0v41.82s-8.96.14-8.96.14l-.05,8.94Z"/>
    </g>
  </g>
</svg>