<?xml version="1.0" encoding="UTF-8"?>
<svg id="a" data-name="Layer 2" xmlns="http://www.w3.org/2000/svg" viewBox="0 0 148 128">
  <defs>
    <style>
      .c {
        fill: #006d77;
      }
    </style>
  </defs>
  <g id="b" data-name="Layer 1">
    <g>
      <polygon class="c" points="57 0 57 11 23.02 10.99 22.99 21.99 11 22.02 11 61.98 23 62 23 73 35 73 35 84 46 84 46 95 56.95 94.99 57.09 105.3 67.97 106.24 68.01 117.03 79.91 116.92 80.04 105.99 91 106 91 95 102 95 102 84 114 84 114 73 126 73 126 62.01 137 61.98 137 22.02 125.01 21.99 124.98 11 91 11 91 0 125 0 125 11 137 11 137 22 148 22 148 62 137 62 137 73 126 73 126 84 114 84 114 95 102 95 102 106 91 106 91 117 80 117 80 128 68 128 68 117 57 117 57 106 46 106 46 95 35 95 35 84 23 84 23 73 11 73.01 11 62 0 62 0 22 11 22 11 11 23 11 23 0 57 0"/>
      <rect class="c" x="57" y="11" width="11" height="11"/>
      <rect class="c" x="80" y="11" width="11" height="11"/>
      <rect class="c" x="68" y="22" width="12" height="11"/>
    </g>
  </g>
</svg>