<?xml version="1.0" encoding="UTF-8"?>
<svg id="Layer_2" xmlns="http://www.w3.org/2000/svg" version="1.1" viewBox="0 0 2506.2 433">
  <!-- Generator: Adobe Illustrator 30.2.1, SVG Export Plug-In . SVG Version: 2.1.1 Build 1)  -->
  <defs>
    <style>
      .st0 {
        fill: #ff6f61;
      }

      .st1 {
        fill: #006d77;
      }

      .st2 {
        stroke: #ff6f61;
        stroke-width: 10px;
      }

      .st2, .st3 {
        fill: none;
        stroke-miterlimit: 10;
      }

      .st3 {
        stroke: #006d77;
        stroke-width: 6px;
      }

      .st4 {
        fill: #fe6f61;
      }

      .st5 {
        fill: #2d3436;
      }
    </style>
  </defs>
  <g id="Layer_21" data-name="Layer_2">
    <g>
      <polygon class="st1" points="266 0 266.1 9.3 300 9.3 300.1 21.6 324.7 21.7 324.8 34 337.1 34.1 337.2 46.3 349.5 46.4 349.4 58.8 275.3 58.8 275.2 95.8 287.6 95.9 287.6 120.6 300 120.7 300 157.7 312.3 157.8 312.5 167 337.1 167 337.2 179.4 361.8 179.4 361.9 191.8 398.9 191.8 399 204.1 423.7 204.1 423.7 216.5 0 216.5 0 204.1 24.7 204.1 24.8 191.8 58.7 191.8 58.8 179.4 83.5 179.4 83.6 167 108.2 167 108.3 157.8 120.6 157.7 120.6 133 133 132.9 133 108.3 145.4 108.2 145.4 83.6 157.7 83.5 157.7 58.8 170.1 58.7 170.1 34.1 179.3 34 179.4 21.7 191.7 21.6 191.8 9.3 204.1 9.2 204.1 0 266 0"/>
      <path class="st4" d="M374.2,71.2h-12.4s0,37,0,37c-4.4.2-7.9.2-12.3,0v-24.7c0,0-12.4,0-12.4,0l-.2,12.3h-12.1s0-12.3,0-12.3h12.3c0,0,0-12.4,0-12.4h24.7s0-24.7,0-24.7h12.3c0,0,0-12.4,0-12.4h12.3c0,0,0-12.4,0-12.4h12.3s0,12.3,0,12.3h-12.2c0,0-.2,12.4-.2,12.4h-12.2c0,0,.1,12.5.1,12.5h36.9s0,12.4,0,12.4h-24.6s0,12.3,0,12.3h12.3c0,0,0,12.4,0,12.4h-12.1s-.2-12.3-.2-12.3h-12.2c0,0-.1-12.4-.1-12.4Z"/>
      <rect class="st4" x="349.5" y="9.3" width="12.4" height="24.8"/>
      <polygon class="st1" points="266 433 253.6 433 253.6 395.9 241.3 395.9 241.2 408.2 228.9 408.3 228.8 420.6 216.5 420.7 216.5 433 179.4 433 179.4 420.7 191.8 420.6 191.8 395.9 179.4 395.9 179.3 408.2 167.1 408.3 167 420.6 120.7 420.6 120.6 408.3 129.8 408.2 130 399 142.2 398.9 142.2 386.6 83.6 386.6 83.5 374.3 71.2 374.2 71.2 361.9 95.8 361.9 95.9 349.5 83.5 349.4 83.5 337.1 58.8 337.1 58.7 324.8 46.4 324.7 46.4 312.4 34 312.3 34.1 300 71.1 300 71.1 287.7 58.8 287.6 58.7 275.3 46.4 275.2 46.4 262.9 34 262.8 34 228.9 46.4 228.9 46.4 241.3 71.1 241.3 71.2 228.9 191.6 228.9 191.7 241.2 179.4 241.3 179.4 275.2 191.7 275.3 191.8 287.6 228.8 287.6 228.9 275.3 241.3 275.2 241.3 241.3 228.9 241.2 229 228.9 361.7 228.9 361.9 241.2 374.2 241.3 374.3 253.6 386.6 253.7 386.6 287.6 374.3 287.6 374.2 275.3 349.5 275.3 349.5 287.6 361.9 287.7 361.9 312.3 374.2 312.4 374.2 349.4 361.9 349.5 361.8 337.2 349.5 337.1 349.5 324.8 337.1 324.8 337.1 383.4 324.8 383.6 324.7 395.9 312.4 395.8 312.4 374.3 300.1 374.3 299.9 383.5 287.6 383.6 287.6 408.2 275.3 408.3 275.2 420.6 266 420.7 266 433"/>
    </g>
    <g>
      <g>
        <circle class="st0" cx="1943.3" cy="26.3" r="21.3"/>
        <path class="st1" d="M529.2,214.8l-19.8-150.4h28.1l14.6,130.6h3.9l18.9-130.6h49l18.9,130.6h3.9l14.6-130.6h28.1l-19.8,150.4h-49l-19.3-133.6h-3.9l-19.3,133.6h-49Z"/>
        <path class="st1" d="M767.2,217.8c-18.9,0-33.9-5.2-45.1-15.6-11.2-10.4-16.8-25.2-16.8-44.6v-36.1c0-19.3,5.6-34.2,16.8-44.6,11.2-10.4,26.2-15.6,45.1-15.6s33.9,5.2,45.1,15.6c11.2,10.4,16.8,25.2,16.8,44.6v36.1c0,19.3-5.6,34.2-16.8,44.6-11.2,10.4-26.2,15.6-45.1,15.6ZM767.2,192.5c10.6,0,18.8-3.1,24.7-9.2,5.9-6.2,8.8-14.4,8.8-24.7v-37.8c0-10.3-2.9-18.5-8.8-24.7-5.9-6.2-14.1-9.2-24.7-9.2s-18.7,3.1-24.6,9.2c-5.9,6.2-8.9,14.4-8.9,24.7v37.8c0,10.3,3,18.5,8.9,24.7,5.9,6.2,14.1,9.2,24.6,9.2Z"/>
        <path class="st1" d="M912.4,217.8c-18.9,0-33.9-5.2-45.1-15.6-11.2-10.4-16.8-25.2-16.8-44.6v-36.1c0-19.3,5.6-34.2,16.8-44.6,11.2-10.4,26.2-15.6,45.1-15.6s33.9,5.2,45.1,15.6c11.2,10.4,16.8,25.2,16.8,44.6v36.1c0,19.3-5.6,34.2-16.8,44.6-11.2,10.4-26.2,15.6-45.1,15.6ZM912.4,192.5c10.6,0,18.8-3.1,24.7-9.2,5.9-6.2,8.8-14.4,8.8-24.7v-37.8c0-10.3-2.9-18.5-8.8-24.7-5.9-6.2-14.1-9.2-24.7-9.2s-18.7,3.1-24.6,9.2c-5.9,6.2-8.9,14.4-8.9,24.7v37.8c0,10.3,3,18.5,8.9,24.7,5.9,6.2,14.1,9.2,24.6,9.2Z"/>
        <path class="st1" d="M990.1,214.8v-24.9h19.8v-100.5h-19.8v-24.9h61.9c20.2,0,35.6,5.1,46.1,15.4,10.5,10.2,15.8,25.5,15.8,45.6v28.4c0,20.2-5.3,35.4-15.8,45.6-10.5,10.2-25.9,15.4-46.1,15.4h-61.9ZM1038.3,189h14.2c11.5,0,19.8-3,25.1-9,5.3-6,7.9-14.5,7.9-25.3v-30.1c0-11-2.7-19.5-7.9-25.5-5.3-5.9-13.7-8.9-25.1-8.9h-14.2v98.8Z"/>
        <path class="st1" d="M1189.7,217.8c-11.6,0-21.8-2.1-30.7-6.2-8.9-4.2-15.8-10.1-20.8-17.8-5-7.7-7.5-17-7.5-27.9v-6h27.9v6c0,9,2.8,15.8,8.4,20.3,5.6,4.5,13.2,6.8,22.8,6.8s17-1.9,21.8-5.8c4.8-3.9,7.2-8.8,7.2-14.8s-1.2-7.5-3.5-10.1-5.8-4.7-10.3-6.3c-4.5-1.6-10-3.2-16.4-4.6l-4.9-1.1c-10.3-2.3-19.2-5.2-26.5-8.7-7.4-3.5-13-8.1-17-13.9-3.9-5.7-5.9-13.2-5.9-22.3s2.2-17,6.6-23.5c4.4-6.5,10.5-11.5,18.5-15,7.9-3.5,17.3-5.3,28-5.3s20.3,1.8,28.7,5.5c8.4,3.7,15,9.1,19.8,16.3,4.8,7.2,7.2,16.3,7.2,27.2v6.4h-27.9v-6.4c0-5.7-1.1-10.3-3.3-13.9-2.2-3.5-5.4-6.1-9.6-7.7-4.2-1.6-9.1-2.5-14.8-2.5-8.6,0-14.9,1.6-19,4.8-4.1,3.2-6.1,7.6-6.1,13.2s1,6.9,2.9,9.5,4.8,4.7,8.7,6.4c3.9,1.7,8.8,3.2,14.8,4.5l4.9,1.1c10.7,2.3,20.1,5.2,28,8.8,7.9,3.6,14.1,8.3,18.6,14.2,4.4,5.9,6.7,13.4,6.7,22.6s-2.3,17.2-7,24.2c-4.7,6.9-11.2,12.4-19.8,16.3-8.5,3.9-18.6,5.9-30.2,5.9Z"/>
        <path class="st1" d="M1267.7,214.8V64.4h28.4v62.1h55.8v-62.1h28.4v150.4h-28.4v-62.5h-55.8v62.5h-28.4Z"/>
        <path class="st1" d="M1467,217.8c-18.9,0-33.9-5.2-45.1-15.6-11.2-10.4-16.8-25.2-16.8-44.6v-36.1c0-19.3,5.6-34.2,16.8-44.6,11.2-10.4,26.2-15.6,45.1-15.6s33.9,5.2,45.1,15.6c11.2,10.4,16.8,25.2,16.8,44.6v36.1c0,19.3-5.6,34.2-16.8,44.6-11.2,10.4-26.2,15.6-45.1,15.6ZM1467,192.5c10.6,0,18.8-3.1,24.7-9.2,5.9-6.2,8.8-14.4,8.8-24.7v-37.8c0-10.3-2.9-18.5-8.8-24.7-5.9-6.2-14.1-9.2-24.7-9.2s-18.7,3.1-24.6,9.2c-5.9,6.2-8.9,14.4-8.9,24.7v37.8c0,10.3,3,18.5,8.9,24.7,5.9,6.2,14.1,9.2,24.6,9.2Z"/>
        <path class="st1" d="M1553.8,214.8V64.4h61.9c9.5,0,17.8,1.9,25,5.7,7.2,3.8,12.9,9.1,17,16,4.1,6.9,6.1,15,6.1,24.5v3c0,9.3-2.1,17.4-6.3,24.4-4.2,6.9-10,12.3-17.2,16.1-7.2,3.8-15.4,5.7-24.6,5.7h-33.5v55h-28.4ZM1582.1,134h30.7c6.7,0,12.2-1.9,16.3-5.6,4.2-3.7,6.2-8.8,6.2-15.3v-2.1c0-6.4-2.1-11.5-6.2-15.3-4.2-3.7-9.6-5.6-16.3-5.6h-30.7v43.8Z"/>
        <path class="st3" d="M1748.8,214.8l-19.8-150.4h28.1l14.6,130.6h3.9l18.9-130.6h49l18.9,130.6h3.9l14.6-130.6h28.1l-19.8,150.4h-49l-19.3-133.6h-3.9l-19.3,133.6h-49Z"/>
        <path class="st3" d="M1929.7,214.8V64.4h28.4v150.4h-28.4Z"/>
        <path class="st3" d="M1982.1,214.8v-36.1l74.3-85.5v-3.4h-72.2v-25.3h101.8v36.1l-74.3,85.5v3.4h74.8v25.3h-104.4Z"/>
        <path class="st3" d="M2099.8,214.8l39.5-150.4h49.4l39.5,150.4h-29.2l-8.2-33.1h-53.7l-8.2,33.1h-29.2ZM2143.9,155.5h40.4l-18.3-73.2h-3.9l-18.3,73.2Z"/>
        <path class="st3" d="M2246.3,214.8V64.4h65.3c9.5,0,17.7,1.6,24.7,4.9,7,3.3,12.5,7.9,16.3,14,3.9,6,5.8,13.1,5.8,21.3v2.6c0,9-2.1,16.3-6.4,21.9s-9.6,9.7-15.9,12.2v3.9c5.7.3,10.2,2.3,13.3,5.9,3.1,3.7,4.7,8.5,4.7,14.5v49.2h-28.4v-45.1c0-3.4-.9-6.2-2.7-8.4-1.8-2.1-4.8-3.2-8.9-3.2h-39.5v56.7h-28.4ZM2274.7,132.3h33.9c6.7,0,12-1.8,15.8-5.5,3.8-3.7,5.7-8.5,5.7-14.5v-2.1c0-6-1.9-10.8-5.6-14.5-3.7-3.7-9-5.5-15.9-5.5h-33.9v42.1Z"/>
        <path class="st3" d="M2377.8,214.8v-24.9h19.8v-100.5h-19.8v-24.9h61.9c20.2,0,35.6,5.1,46.1,15.4,10.5,10.2,15.8,25.5,15.8,45.6v28.4c0,20.2-5.3,35.4-15.8,45.6-10.5,10.2-25.9,15.4-46.1,15.4h-61.9ZM2425.9,189h14.2c11.5,0,19.8-3,25.1-9,5.3-6,7.9-14.5,7.9-25.3v-30.1c0-11-2.7-19.5-7.9-25.5-5.3-5.9-13.7-8.9-25.1-8.9h-14.2v98.8Z"/>
      </g>
      <g>
        <line class="st2" x1="508.7" y1="267" x2="2506.2" y2="267"/>
        <line class="st0" x1="508.7" y1="267" x2="2506.2" y2="267"/>
      </g>
      <g>
        <path class="st5" d="M555.9,418.6c-7.3,0-13.7-1.3-19.3-3.9-5.6-2.6-10-6.4-13.2-11.4-3.2-5-4.8-11.1-4.8-18.3v-3.5h14.8v3.5c0,6.8,2,11.9,6.1,15.3,4.1,3.4,9.5,5.1,16.4,5.1s12.1-1.4,15.6-4.3c3.5-2.9,5.2-6.6,5.2-11.2s-.8-5.5-2.5-7.5c-1.7-1.9-4-3.5-7-4.6-3-1.1-6.7-2.2-10.9-3.2l-5.1-1.2c-6.2-1.5-11.5-3.3-16.1-5.5-4.6-2.2-8.1-5-10.6-8.6-2.5-3.6-3.7-8.2-3.7-13.8s1.4-10.6,4.2-14.6c2.8-4,6.7-7.2,11.7-9.4s10.8-3.3,17.5-3.3,12.7,1.2,18,3.4c5.3,2.3,9.5,5.7,12.5,10.2,3,4.5,4.6,10.2,4.6,17v5h-14.8v-5c0-4.1-.9-7.5-2.6-10.1-1.7-2.6-4.1-4.5-7.1-5.7-3-1.2-6.6-1.8-10.6-1.8-5.9,0-10.5,1.2-13.7,3.7-3.3,2.4-4.9,5.8-4.9,10.1s.7,5.4,2.1,7.2c1.4,1.9,3.5,3.4,6.3,4.6,2.8,1.2,6.2,2.3,10.4,3.2l5.1,1.2c6.3,1.4,11.8,3.2,16.6,5.3,4.8,2.2,8.6,5.1,11.3,8.8,2.8,3.7,4.1,8.4,4.1,14.2s-1.4,10.9-4.3,15.2c-2.9,4.3-7,7.7-12.4,10.1-5.3,2.4-11.6,3.7-18.9,3.7Z"/>
        <path class="st5" d="M607.5,416.6v-96.6h14.2v38.2h2.2c.9-1.7,2.2-3.4,3.9-5.1,1.7-1.7,4-3,6.8-4.1,2.8-1.1,6.4-1.6,10.7-1.6s9.7,1.2,13.7,3.4c4,2.3,7.2,5.5,9.5,9.7,2.3,4.2,3.5,9.2,3.5,15.1v40.9h-14.2v-39.7c0-5.9-1.5-10.2-4.4-13-2.9-2.8-7-4.2-12.1-4.2s-10.6,1.9-14.1,5.8c-3.5,3.9-5.3,9.5-5.3,16.8v34.4h-14.2Z"/>
        <path class="st5" d="M723.6,418.6c-6.9,0-12.9-1.4-18.1-4.3-5.2-2.9-9.2-7-12.1-12.3-2.9-5.3-4.3-11.4-4.3-18.4v-1.7c0-7.1,1.4-13.3,4.3-18.6,2.9-5.3,6.8-9.4,11.9-12.3,5.1-2.9,11-4.3,17.7-4.3s12.3,1.4,17.2,4.3c4.9,2.9,8.8,6.9,11.5,12.1,2.8,5.2,4.1,11.2,4.1,18.1v5.4h-52.3c.2,6,2.2,10.7,6,14.3,3.8,3.5,8.6,5.3,14.3,5.3s9.4-1.2,12.1-3.6c2.7-2.4,4.8-5.2,6.3-8.3l11.7,6.1c-1.3,2.6-3.2,5.3-5.6,8.1-2.4,2.9-5.6,5.2-9.6,7.2-4,1.9-9,2.9-15.2,2.9ZM703.7,375.6h37.7c-.4-5.2-2.2-9.2-5.5-12.1-3.3-2.9-7.6-4.3-13-4.3s-9.7,1.4-13,4.3c-3.4,2.9-5.4,6.9-6.1,12.1Z"/>
        <path class="st5" d="M804.2,418.6c-6.9,0-12.9-1.4-18.1-4.3-5.2-2.9-9.2-7-12.1-12.3-2.9-5.3-4.3-11.4-4.3-18.4v-1.7c0-7.1,1.4-13.3,4.3-18.6,2.9-5.3,6.8-9.4,11.9-12.3,5.1-2.9,11-4.3,17.7-4.3s12.3,1.4,17.2,4.3c4.9,2.9,8.8,6.9,11.5,12.1,2.8,5.2,4.1,11.2,4.1,18.1v5.4h-52.3c.2,6,2.2,10.7,6,14.3,3.8,3.5,8.6,5.3,14.3,5.3s9.4-1.2,12.1-3.6c2.7-2.4,4.8-5.2,6.3-8.3l11.7,6.1c-1.3,2.6-3.2,5.3-5.6,8.1-2.4,2.9-5.6,5.2-9.6,7.2-4,1.9-9,2.9-15.2,2.9ZM784.3,375.6h37.7c-.4-5.2-2.2-9.2-5.5-12.1-3.3-2.9-7.6-4.3-13-4.3s-9.7,1.4-13,4.3c-3.4,2.9-5.4,6.9-6.1,12.1Z"/>
        <path class="st5" d="M876.6,416.6c-4.1,0-7.4-1.2-9.9-3.7-2.4-2.5-3.7-5.8-3.7-9.9v-42.4h-18.8v-12h18.8v-22.5h14.2v22.5h20.3v12h-20.3v39.9c0,2.8,1.3,4.1,3.9,4.1h14.2v12h-18.8Z"/>
        <path class="st5" d="M985,418.6c-11.8,0-21.1-3.3-28-10-6.9-6.7-10.4-16.3-10.4-28.9v-22.6c0-12.6,3.4-22.2,10.4-28.9,6.9-6.7,16.2-10,28-10s20.5,3.2,26.8,9.7c6.3,6.4,9.5,15.2,9.5,26.4v.8h-14.8v-1.2c0-6.5-1.8-11.9-5.3-16-3.5-4.1-8.9-6.2-16.2-6.2s-13.1,2.2-17.3,6.7c-4.1,4.5-6.2,10.7-6.2,18.6v23.2c0,7.8,2.1,14,6.2,18.5,4.1,4.5,9.9,6.8,17.3,6.8s12.7-2.1,16.2-6.3c3.5-4.2,5.3-9.5,5.3-15.9v-2.3h14.8v1.9c0,11.1-3.2,19.9-9.5,26.4-6.3,6.4-15.2,9.7-26.8,9.7Z"/>
        <path class="st5" d="M1064.3,417.9c-5.2,0-9.8-1.2-13.8-3.4-4-2.3-7.2-5.6-9.5-9.8-2.3-4.2-3.4-9.3-3.4-15.2v-40.9h14.2v39.9c0,5.9,1.5,10.2,4.4,13,2.9,2.8,7,4.2,12.3,4.2s10.5-2,14-5.9c3.5-3.9,5.3-9.5,5.3-16.9v-34.4h14.2v68h-13.9v-10.2h-2.2c-1.3,2.8-3.6,5.4-6.9,7.8-3.3,2.4-8.2,3.7-14.6,3.7Z"/>
        <path class="st5" d="M1148.5,416.6c-4.1,0-7.4-1.2-9.9-3.7-2.4-2.5-3.7-5.8-3.7-9.9v-42.4h-18.8v-12h18.8v-22.5h14.2v22.5h20.3v12h-20.3v39.9c0,2.8,1.3,4.1,3.9,4.1h14.2v12h-18.8Z"/>
        <path class="st5" d="M1228.7,416.6l-14.2-96.6h14.9l11.6,86.5h2.2l14.9-86.5h26.1l14.9,86.5h2.2l11.5-86.5h14.9l-14.2,96.6h-26.1l-15.2-87.8h-2.2l-15,87.8h-26.2Z"/>
        <path class="st5" d="M1350,339.3c-2.8,0-5.1-.9-7-2.7-1.9-1.8-2.8-4.1-2.8-7s.9-5.2,2.8-7c1.9-1.8,4.2-2.7,7-2.7s5.2.9,7,2.7c1.8,1.8,2.8,4.1,2.8,7s-.9,5.2-2.8,7c-1.8,1.8-4.2,2.7-7,2.7ZM1342.8,416.6v-68h14.2v68h-14.2Z"/>
        <path class="st5" d="M1375.4,416.6v-17.4l40.2-36.7v-1.9h-38.8v-12h54.2v17.5l-40.3,36.7v1.8h41.4v12h-56.7Z"/>
        <path class="st5" d="M1470.7,418.6c-4.9,0-9.2-.8-13-2.5-3.8-1.7-6.9-4.1-9.1-7.3-2.3-3.2-3.4-7.1-3.4-11.7s1.1-8.6,3.4-11.7c2.3-3.1,5.3-5.4,9.2-7,3.9-1.6,8.3-2.3,13.3-2.3h20.7v-4.4c0-4-1.2-7.1-3.6-9.5-2.4-2.4-6.1-3.6-11-3.6s-8.6,1.2-11.2,3.5c-2.6,2.3-4.3,5.3-5.1,9l-13.2-4.3c1.1-3.7,2.9-7,5.3-10,2.4-3,5.7-5.4,9.7-7.2,4-1.8,8.9-2.8,14.6-2.8,8.8,0,15.8,2.3,20.8,6.8,5.1,4.5,7.6,10.9,7.6,19.2v28c0,2.8,1.3,4.1,3.9,4.1h5.8v11.9h-10.6c-3.2,0-5.8-.8-7.9-2.5-2-1.7-3-3.9-3-6.8v-.4h-2.1c-.7,1.4-1.8,3-3.3,4.8-1.5,1.8-3.6,3.4-6.5,4.8-2.9,1.3-6.6,2-11.3,2ZM1472.8,406.8c5.7,0,10.3-1.6,13.8-4.9,3.5-3.3,5.2-7.7,5.2-13.5v-1.4h-19.9c-3.8,0-6.8.8-9.1,2.4-2.3,1.6-3.5,4-3.5,7.1s1.2,5.6,3.6,7.5c2.4,1.8,5.7,2.8,9.8,2.8Z"/>
        <path class="st5" d="M1529.3,416.6v-68h13.9v8h2.2c1.1-2.9,2.9-4.9,5.3-6.3,2.4-1.3,5.5-2,9-2h8.1v12.8h-8.7c-4.6,0-8.4,1.3-11.3,3.8-2.9,2.5-4.4,6.4-4.4,11.7v40h-14.2Z"/>
        <path class="st5" d="M1608.3,418.6c-5.6,0-10.8-1.4-15.6-4.1-4.8-2.8-8.6-6.7-11.5-11.9-2.9-5.2-4.3-11.5-4.3-18.8v-2.1c0-7.3,1.4-13.5,4.3-18.8,2.9-5.2,6.7-9.2,11.5-12,4.8-2.8,10-4.1,15.7-4.1s8.1.6,11.1,1.7c3,1.1,5.5,2.5,7.4,4.2,1.9,1.7,3.4,3.5,4.4,5.3h2.2v-37.8h14.2v96.6h-13.9v-9.7h-2.2c-1.7,2.9-4.4,5.6-7.9,8-3.5,2.4-8.6,3.6-15.3,3.6ZM1612.3,406.1c6.2,0,11.2-2,15.2-5.9,4-4,6-9.6,6-17v-1.2c0-7.3-2-12.9-5.9-16.8-4-4-9.1-5.9-15.3-5.9s-11.1,2-15.1,5.9c-4,4-6,9.6-6,16.8v1.2c0,7.4,2,13,6,17,4,4,9,5.9,15.1,5.9Z"/>
      </g>
    </g>
  </g>
</svg>